<?xml version="1.0" encoding="utf-8"?>
<!-- Generator: Adobe Illustrator 27.5.0, SVG Export Plug-In . SVG Version: 6.00 Build 0)  -->
<svg version="1.1" xmlns="http://www.w3.org/2000/svg" xmlns:xlink="http://www.w3.org/1999/xlink" x="0px" y="0px"
	 viewBox="0 0 750 500.001" style="enable-background:new 0 0 750 500.001;" xml:space="preserve">
<g id="BACKGROUND">
	<g>
		<rect style="fill:#F0FBFF;" width="750" height="500"/>
		<polygon style="fill:#D2F2FE;" points="721.316,476.635 721.316,191.703 700.816,191.703 700.816,172.703 670.316,191.703 
			670.316,228.2 650.816,228.2 650.816,249.7 632.816,249.7 632.816,200.203 595.816,200.203 595.816,239.2 568.816,239.2 
			568.816,249.7 563.816,249.7 563.816,287.767 532.961,287.767 532.961,244.456 498.279,244.456 498.279,141.703 456.108,168.203 
			456.108,199.105 431.583,178.095 431.583,216.333 390.389,216.333 390.389,286.253 370.131,286.253 370.131,112.648 
			359.05,112.648 359.05,96.842 351.828,96.842 351.828,70.765 349.422,70.765 349.422,96.842 342.2,96.842 342.2,112.648 
			331.119,112.648 331.119,310.708 313.243,310.708 313.243,191.703 296.243,191.703 296.243,166.703 287.196,166.703 
			287.196,159.703 272.743,159.703 272.743,14.242 229.743,36.242 229.743,182.703 199.743,182.703 199.743,287.767 
			189.683,287.767 189.683,229.2 160.683,229.2 160.683,113.203 109.683,113.203 109.683,287.767 97.684,287.767 97.684,159.526 
			60.684,200.203 60.684,239.2 33.684,239.2 33.684,249.7 28.684,249.7 28.684,476.635 		"/>
		<g>
			<path style="fill:#6AB7C7;" d="M735.324,481.135H14.676c-2.485,0-4.5-2.015-4.5-4.5c0-2.485,2.015-4.5,4.5-4.5h720.648
				c2.485,0,4.5,2.015,4.5,4.5C739.824,479.12,737.81,481.135,735.324,481.135z"/>
		</g>
	</g>
</g>
<g id="OBJECTS">
	<g>
		<g>
			<path style="fill:#59473D;" d="M277.119,424.581c0,0.462-0.375,0.836-0.836,0.836h-90.979c-0.461,0-0.836-0.374-0.836-0.836
				v-25.996c0-0.462,0.375-0.836,0.836-0.836h90.979c0.462,0,0.836,0.374,0.836,0.836V424.581z"/>
			<path style="fill:#59473D;" d="M492.075,423.794c0,0.462-0.374,0.837-0.835,0.837H387.376c-0.463,0-0.837-0.375-0.837-0.837
				v-35.86c0-0.463,0.374-0.836,0.837-0.836H491.24c0.461,0,0.835,0.373,0.835,0.836V423.794z"/>
		</g>
		<path style="fill:#9E9693;" d="M558.241,430.244c0,1.385-1.123,2.509-2.509,2.509H139.066c-1.385,0-2.509-1.124-2.509-2.509
			v-11.492c0-1.385,1.124-2.508,2.509-2.508h416.667c1.386,0,2.509,1.123,2.509,2.508V430.244z"/>
		<g>
			<path style="fill:#CDC1C1;" d="M503.474,405.576c0,1.386-1.122,2.51-2.508,2.51H112.917c-1.385,0-2.509-1.124-2.509-2.51V264.523
				c0-1.386,1.124-2.51,2.509-2.51h388.049c1.386,0,2.508,1.124,2.508,2.51V405.576z"/>
			<path style="fill:#9F9691;" d="M495.237,266.541H118.645c-1.386,0-2.509,1.124-2.509,2.509v126.191
				c0,1.386,1.123,2.508,2.509,2.508h376.593c1.386,0,2.509-1.122,2.509-2.508V269.05
				C497.746,267.665,496.623,266.541,495.237,266.541z M494.401,394.404H119.48v-13.479h374.921V394.404z M494.401,379.254H119.48
				v-22.3h374.921V379.254z M494.401,355.281H119.48v-22.299h374.921V355.281z M494.401,331.309H119.48v-22.3h374.921V331.309z
				 M494.401,307.338H119.48v-22.3h374.921V307.338z M494.401,283.365H119.48v-13.478h374.921V283.365z"/>
			<path style="fill:#9F9691;" d="M508.671,408.375c0,1.385-1.123,2.508-2.509,2.508H107.721c-1.386,0-2.509-1.123-2.509-2.508
				v-0.19c0-1.386,1.123-2.508,2.509-2.508h398.441c1.386,0,2.509,1.122,2.509,2.508V408.375z"/>
		</g>
		<path style="fill:#FE5D62;" d="M512.885,274.347v37.777h70.759C583.644,312.124,562.655,274.347,512.885,274.347z"/>
		<path style="fill:#FF7E7C;" d="M512.885,274.347v10.86c12.485-0.709,44.328,0.486,70.759,26.917
			C583.644,312.124,562.655,274.347,512.885,274.347z"/>
		<path style="fill:#FE5D62;" d="M622.62,314.633c-0.32-1.348-1.124-2.509-2.51-2.509H512.795c-1.386,0-2.508,1.123-2.508,2.509
			v89.725c0,0.485,0.143,0.935,0.382,1.319h47.572c20.475,0,37.073,16.597,37.073,37.072c0,1.033-0.054,2.054-0.137,3.067h38.125
			c1.386,0,2.508-1.124,2.508-2.51v-38.949v-31.017v-2.652C635.811,370.689,625.863,328.334,622.62,314.633z"/>
		<g>
			<polygon style="fill:#59473D;" points="585.029,420.658 553.513,405.677 524.791,418.568 515.039,445.159 591.986,445.159 			"/>
			<path style="fill:#B6ABA5;" d="M587.934,445.159c0-17.603-15.638-32.475-34.147-32.475c-18.509,0-34.146,14.872-34.146,32.475
				c0,2.539-9.199,2.539-9.199,0c0-22.589,19.85-41.674,43.346-41.674c23.497,0,43.347,19.085,43.347,41.674
				C597.133,447.698,587.934,447.698,587.934,445.159z"/>
			<path style="fill:#7E6D63;" d="M553.786,408.086c-20.474,0-38.747,16.598-38.747,37.073v1.905c2.3,0,4.601-0.636,4.601-1.905
				c0-17.603,15.638-32.475,34.146-32.475c18.51,0,34.147,14.872,34.147,32.475c0,1.27,2.3,1.905,4.601,1.905v-1.905
				C592.534,424.684,574.261,408.086,553.786,408.086z"/>
			<path style="fill:#6F5755;" d="M584.164,445.816c0,16.927-13.723,30.651-30.651,30.651c-16.928,0-30.652-13.725-30.652-30.651
				c0-16.931,13.725-30.652,30.652-30.652C570.441,415.164,584.164,428.886,584.164,445.816z"/>
			<path style="fill:#7E6D63;" d="M573.049,445.816c0,10.789-8.747,19.535-19.536,19.535c-10.789,0-19.535-8.746-19.535-19.535
				c0-10.79,8.746-19.538,19.535-19.538C564.302,426.278,573.049,435.026,573.049,445.816z"/>
			<path style="fill:#B6ABA5;" d="M569.321,445.816c0,8.729-7.078,15.808-15.809,15.808c-8.729,0-15.809-7.078-15.809-15.808
				c0-8.732,7.079-15.809,15.809-15.809C562.243,430.008,569.321,437.084,569.321,445.816z"/>
			<path style="fill:#6F5755;" d="M558.241,445.816c0,2.61-2.117,4.728-4.729,4.728c-2.611,0-4.727-2.117-4.727-4.728
				c0-2.612,2.116-4.729,4.727-4.729C556.124,441.087,558.241,443.204,558.241,445.816z"/>
			<polygon style="fill:#59473D;" points="417.782,420.658 386.266,405.677 357.544,418.568 347.792,445.159 424.739,445.159 			"/>
			<path style="fill:#B6ABA5;" d="M420.688,445.159c0-17.603-15.638-32.475-34.148-32.475c-18.51,0-34.148,14.872-34.148,32.475
				c0,2.539-9.198,2.539-9.198,0c0-22.589,19.85-41.674,43.346-41.674c23.496,0,43.346,19.085,43.346,41.674
				C429.885,447.698,420.688,447.698,420.688,445.159z"/>
			<path style="fill:#7E6D63;" d="M386.539,408.086c-20.475,0-38.747,16.598-38.747,37.073v1.905c2.3,0,4.6-0.636,4.6-1.905
				c0-17.603,15.638-32.475,34.148-32.475c18.511,0,34.148,14.872,34.148,32.475c0,1.27,2.299,1.905,4.599,1.905v-1.905
				C425.286,424.684,407.015,408.086,386.539,408.086z"/>
			<path style="fill:#6F5755;" d="M416.918,445.816c0,16.927-13.725,30.651-30.652,30.651c-16.928,0-30.652-13.725-30.652-30.651
				c0-16.931,13.724-30.652,30.652-30.652C403.193,415.164,416.918,428.886,416.918,445.816z"/>
			<path style="fill:#7E6D63;" d="M405.801,445.816c0,10.789-8.745,19.535-19.535,19.535c-10.79,0-19.536-8.746-19.536-19.535
				c0-10.79,8.746-19.538,19.536-19.538C397.056,426.278,405.801,435.026,405.801,445.816z"/>
			<path style="fill:#B6ABA5;" d="M402.074,445.816c0,8.729-7.077,15.808-15.809,15.808c-8.73,0-15.809-7.078-15.809-15.808
				c0-8.732,7.079-15.809,15.809-15.809C394.997,430.008,402.074,437.084,402.074,445.816z"/>
			<path style="fill:#6F5755;" d="M390.994,445.816c0,2.61-2.116,4.728-4.729,4.728c-2.611,0-4.728-2.117-4.728-4.728
				c0-2.612,2.117-4.729,4.728-4.729C388.878,441.087,390.994,443.204,390.994,445.816z"/>
			<polygon style="fill:#59473D;" points="209.28,420.658 177.764,405.677 149.042,418.568 139.29,445.159 216.237,445.159 			"/>
			<path style="fill:#B6ABA5;" d="M212.185,445.159c0-17.603-15.638-32.475-34.147-32.475c-18.51,0-34.148,14.872-34.148,32.475
				c0,2.539-9.198,2.539-9.198,0c0-22.589,19.85-41.674,43.346-41.674c23.496,0,43.346,19.085,43.346,41.674
				C221.383,447.698,212.185,447.698,212.185,445.159z"/>
			<path style="fill:#7E6D63;" d="M178.037,408.086c-20.475,0-38.748,16.598-38.748,37.073v1.905c2.3,0,4.6-0.636,4.6-1.905
				c0-17.603,15.638-32.475,34.148-32.475c18.509,0,34.147,14.872,34.147,32.475c0,1.27,2.3,1.905,4.599,1.905v-1.905
				C216.784,424.684,198.512,408.086,178.037,408.086z"/>
			<path style="fill:#6F5755;" d="M208.415,445.816c0,16.927-13.724,30.651-30.651,30.651c-16.928,0-30.652-13.725-30.652-30.651
				c0-16.931,13.724-30.652,30.652-30.652C194.691,415.164,208.415,428.886,208.415,445.816z"/>
			<path style="fill:#7E6D63;" d="M197.299,445.816c0,10.789-8.746,19.535-19.535,19.535c-10.79,0-19.536-8.746-19.536-19.535
				c0-10.79,8.746-19.538,19.536-19.538C188.553,426.278,197.299,435.026,197.299,445.816z"/>
			<path style="fill:#B6ABA5;" d="M193.572,445.816c0,8.729-7.078,15.808-15.808,15.808c-8.731,0-15.809-7.078-15.809-15.808
				c0-8.732,7.078-15.809,15.809-15.809C186.494,430.008,193.572,437.084,193.572,445.816z"/>
			<path style="fill:#6F5755;" d="M182.491,445.816c0,2.61-2.116,4.728-4.728,4.728c-2.612,0-4.729-2.117-4.729-4.728
				c0-2.612,2.117-4.729,4.729-4.729C180.375,441.087,182.491,443.204,182.491,445.816z"/>
		</g>
		<path style="fill:#DD484A;" d="M611.202,328.185c0-1.386-1.122-2.509-2.508-2.509h-57.923c-1.385,0-2.508,1.123-2.508,2.509
			v70.902h11.354c16.447,0,32.521,10.715,37.369,25.544h22.3c1.386,0,2.51-1.124,2.51-2.509v-45.435L611.202,328.185z"/>
		<path style="fill:#7E6D63;" d="M639.282,418.845H628.69c-1.386,0-2.508,1.123-2.508,2.509v8.654h-33.622
			c-1.386,0-2.509,1.122-2.509,2.508v13.736c0,1.386,1.123,2.51,2.509,2.51h36.13h10.592c1.386,0,2.508-1.124,2.508-2.51v-13.736
			v-11.162C641.79,419.968,640.668,418.845,639.282,418.845z"/>
		<path style="fill:#B6ABA5;" d="M639.282,418.845H637.6v3.844v13.736c0,1.386-1.122,2.509-2.509,2.509H624.5h-34.448v7.318
			c0,1.386,1.123,2.51,2.509,2.51h36.13h10.592c1.386,0,2.508-1.124,2.508-2.51v-13.736v-11.162
			C641.79,419.968,640.668,418.845,639.282,418.845z"/>
		<g>
			<path style="fill:#796860;" d="M541.007,365.054c0,1.385-1.122,2.509-2.509,2.509h-13.176c-1.386,0-2.51-1.124-2.51-2.509
				v-35.345c0-1.386,1.124-2.509,2.51-2.509h13.176c1.387,0,2.509,1.123,2.509,2.509V365.054z"/>
			<path style="fill:#796860;" d="M616.986,373.898c0,1.386-1.122,2.51-2.508,2.51c0,0-45.284-5.991-60.143-8.02
				c-1.373-0.188-2.51-1.124-2.51-2.509v-33.835c0-1.385,1.124-2.508,2.51-2.508h51.372c1.386,0,2.223,1.153,2.51,2.508
				C610.416,342.477,616.986,373.898,616.986,373.898z"/>
			<path style="fill:#796860;" d="M625.241,325.744c-3.285-0.436-5.283-0.7-5.283-0.7c-1.386,0-2.509,1.124-2.509,2.509
				c0,0,6.571,31.422,8.77,41.854c0.286,1.355,1.123,2.509,2.509,2.509h7.083v-1.227
				C635.811,370.689,629.45,343.602,625.241,325.744z"/>
			<path style="fill:#CAF7F4;" d="M540.046,360.568c0,1.386-1.122,2.509-2.508,2.509h-10.347c-1.387,0-2.509-1.123-2.509-2.509
				v-29.753c0-1.386,1.122-2.509,2.509-2.509h10.347c1.386,0,2.508,1.123,2.508,2.509V360.568z"/>
			<path style="fill:#CAF7F4;" d="M615.537,371.298c0,1.283-1.038,2.321-2.321,2.321c0,0-41.898-5.544-55.646-7.423
				c-1.271-0.173-2.321-1.038-2.321-2.322v-31.318c0-1.283,1.039-2.322,2.321-2.322h47.532c1.282,0,2.058,1.066,2.321,2.322
				C609.457,342.212,615.537,371.298,615.537,371.298z"/>
			<path style="fill:#CAF7F4;" d="M621.22,326.04c-1.282,0-2.321,1.04-2.321,2.323c0,0,6.08,29.086,8.114,38.741
				c0.265,1.256,1.039,2.323,2.322,2.323h6.18c-1.274-5.427-6.412-27.295-10.071-42.827C622.801,326.25,621.22,326.04,621.22,326.04
				z"/>
		</g>
		<path style="fill:#54433B;" d="M564.891,375.128c0,1.078-0.874,1.951-1.952,1.951h-9.16c-1.078,0-1.952-0.873-1.952-1.951l0,0
			c0-1.079,0.874-1.952,1.952-1.952h9.16C564.017,373.176,564.891,374.049,564.891,375.128L564.891,375.128z"/>
		<path style="fill:#B6ABA5;" d="M506.686,451.287c0,1.385-1.122,2.508-2.508,2.508h-68.289c-1.385,0-2.508-1.123-2.508-2.508
			v-25.689c0-1.385,1.123-2.509,2.508-2.509h68.289c1.386,0,2.508,1.124,2.508,2.509V451.287z"/>
		<g>
			<path style="fill:#7E6D63;" d="M452.856,454.632c0,0.462-0.376,0.836-0.837,0.836h-3.192c-0.461,0-0.837-0.374-0.837-0.836
				v-32.38c0-0.461,0.376-0.836,0.837-0.836h3.192c0.461,0,0.837,0.375,0.837,0.836V454.632z"/>
			<path style="fill:#7E6D63;" d="M492.075,454.632c0,0.462-0.374,0.836-0.835,0.836h-3.192c-0.462,0-0.837-0.374-0.837-0.836
				v-32.38c0-0.461,0.375-0.836,0.837-0.836h3.192c0.461,0,0.835,0.375,0.835,0.836V454.632z"/>
		</g>
		<path style="fill:#B6ABA5;" d="M338.379,441.938c0,0.463-0.374,0.837-0.836,0.837H227.941c-0.462,0-0.837-0.374-0.837-0.837
			v-19.685c0-0.461,0.375-0.836,0.837-0.836h109.602c0.462,0,0.836,0.375,0.836,0.836V441.938z"/>
		<path style="fill:#7E6D63;" d="M332.908,440.251c0,0.462-0.375,0.836-0.837,0.836h-98.658c-0.462,0-0.836-0.374-0.836-0.836
			v-3.936c0-0.462,0.375-0.837,0.836-0.837h98.658c0.462,0,0.837,0.375,0.837,0.837V440.251z"/>
		<path style="fill:#B6ABA5;" d="M158.228,427.65c0,0.462-0.375,0.836-0.836,0.836h-30.998c-0.461,0-0.836-0.374-0.836-0.836v-5.7
			c0-0.461,0.375-0.837,0.836-0.837h30.998c0.461,0,0.836,0.376,0.836,0.837V427.65z"/>
		<path style="fill:#7E6D63;" d="M127.99,432.219c0,0.463-0.375,0.836-0.836,0.836h-5.32c-0.462,0-0.836-0.373-0.836-0.836v-14.837
			c0-0.461,0.375-0.836,0.836-0.836h5.32c0.461,0,0.836,0.375,0.836,0.836V432.219z"/>
		<g>
			<path style="fill:#FF7E7C;" d="M620.621,312.542H512.885c-0.23,0-0.418-0.186-0.418-0.418c0-0.232,0.188-0.418,0.418-0.418
				h107.736c0.232,0,0.418,0.187,0.418,0.418C621.039,312.355,620.853,312.542,620.621,312.542z"/>
		</g>
		<g>
			<path style="fill:#FFF7D8;" d="M529.352,394.514c0,1.386-1.122,2.509-2.508,2.509h-7.965c-1.386,0-2.508-1.123-2.508-2.509
				v-0.475c0-1.386,1.122-2.509,2.508-2.509h7.965c1.386,0,2.508,1.123,2.508,2.509V394.514z"/>
			<path style="fill:#FFE785;" d="M521.079,395.186c-1.386,0-2.508-1.124-2.508-2.509v-0.474c0-0.227,0.039-0.443,0.096-0.651
				c-1.284,0.109-2.296,1.175-2.296,2.487v0.475c0,1.386,1.122,2.509,2.508,2.509h7.965c1.159,0,2.124-0.79,2.412-1.858
				c-0.071,0.007-0.14,0.022-0.213,0.022H521.079z"/>
			<path style="fill:#FFF7D8;" d="M636.732,394.514c0,1.386-1.122,2.509-2.508,2.509h-7.964c-1.386,0-2.509-1.123-2.509-2.509
				v-0.475c0-1.386,1.123-2.509,2.509-2.509h7.964c1.386,0,2.508,1.123,2.508,2.509V394.514z"/>
			<path style="fill:#FFE785;" d="M628.46,395.186c-1.387,0-2.509-1.124-2.509-2.509v-0.474c0-0.227,0.04-0.443,0.096-0.651
				c-1.283,0.109-2.296,1.175-2.296,2.487v0.475c0,1.386,1.123,2.509,2.509,2.509h7.964c1.16,0,2.125-0.79,2.412-1.858
				c-0.071,0.007-0.14,0.022-0.212,0.022H628.46z"/>
			<path style="fill:#FFF7D8;" d="M639.767,413.734c0,1.385-1.122,2.51-2.508,2.51h-7.123c-1.387,0-2.509-1.125-2.509-2.51v-10.591
				c0-1.386,1.122-2.509,2.509-2.509h7.123c1.386,0,2.508,1.123,2.508,2.509V413.734z"/>
			<path style="fill:#FFE785;" d="M630.662,410.972v-10.337h-0.526c-1.387,0-2.509,1.123-2.509,2.509v10.591
				c0,1.385,1.122,2.51,2.509,2.51h7.123c1.386,0,2.508-1.125,2.508-2.51v-0.255h-6.596
				C631.785,413.479,630.662,412.357,630.662,410.972z"/>
			<path style="fill:#FFF7D8;" d="M643.749,435.498h-7.964c-1.386,0-2.509-1.123-2.509-2.509v-0.474
				c0-1.386,1.123-2.508,2.509-2.508h7.964C645.135,430.008,645.135,435.498,643.749,435.498z"/>
			<path style="fill:#FFE785;" d="M635.676,431.699v-0.475c0-0.445,0.126-0.855,0.328-1.217h-0.219
				c-1.386,0-2.509,1.122-2.509,2.508v0.474c0,1.386,1.123,2.509,2.509,2.509h7.964c0.435,0,0.734-0.545,0.896-1.29h-6.461
				C636.799,434.208,635.676,433.084,635.676,431.699z"/>
		</g>
	</g>
</g>
</svg>
